<?xml version="1.0" encoding="utf-8"?>
<svg xmlns="http://www.w3.org/2000/svg" viewBox="8.7107 5.4709 208.3297 195.8774" width="208.33px" height="195.877px"><g id="object-0"><path opacity="1.000000" stroke="none" d=" M183.367966,154.985077 C183.367981,140.995773 183.712646,127.491226 183.260880,114.013367 C182.885529,102.814972 187.182953,94.800369 197.120972,89.814529 C203.264481,86.732376 209.489227,83.812149 216.840591,80.256714 C216.840591,83.550232 216.840576,85.471535 216.840576,87.392838 C216.840576,116.211205 216.544891,145.034622 217.037445,173.844574 C217.169342,181.559311 212.924576,185.483078 207.684189,188.679810 C198.613770,194.212936 188.190369,195.465607 177.829910,197.373734 C142.772827,203.830307 107.485809,200.457977 72.313118,200.543274 C60.842453,200.571106 49.412041,196.673950 37.871868,195.398361 C29.447903,194.467224 21.973333,191.878586 15.166272,187.001648 C11.326081,184.250336 8.706852,180.986572 8.931380,175.835022 C9.185011,170.015778 9.204047,164.167221 8.939473,158.348938 C8.545472,149.684433 12.638455,143.633682 19.842106,139.727173 C25.816774,136.487122 32.186111,133.969986 38.416180,131.212967 C39.072994,130.922302 39.969769,131.173874 41.120079,131.173874 C41.120079,143.031662 41.120079,154.643356 41.120079,166.239197 C51.692654,170.123505 62.318111,171.061081 73.146141,171.244644 C82.328941,171.400314 91.506866,172.831757 100.674171,172.712860 C121.679131,172.440430 142.680161,171.666565 163.673615,170.858109 C168.365250,170.677444 173.085327,169.797974 177.668930,168.716995 C181.166794,167.892075 184.351990,166.269440 183.428665,161.466171 C183.058121,159.538574 183.367767,157.480209 183.367966,154.985077 z" style=""/><path opacity="1.000000" stroke="none" d=" M116.999893,34.630486 C100.676865,34.766853 84.834534,34.480240 69.038216,35.201519 C59.839134,35.621559 50.713795,37.656380 41.071266,39.033783 C41.071266,42.015797 41.071289,44.471020 41.071262,46.926239 C41.071098,63.589031 40.757233,80.260307 41.207706,96.910904 C41.421734,104.821838 38.837543,110.919945 32.340961,114.860840 C26.136948,118.624283 19.408844,121.533867 12.848583,124.688759 C11.892518,125.148544 10.588610,124.885025 8.928740,124.988396 C8.928740,123.003639 8.928741,121.209167 8.928740,119.414696 C8.928738,90.588066 9.259745,61.755188 8.715347,32.938847 C8.563462,24.899187 12.145131,20.293909 18.392805,17.537369 C24.935844,14.650514 31.993401,12.865078 38.915897,10.917524 C50.518845,7.653189 62.418690,6.895736 74.440979,6.758013 C97.116524,6.498250 119.786156,5.614161 142.461212,5.475779 C151.466888,5.420818 160.641525,5.818151 169.452789,7.505448 C182.742294,10.050299 196.480286,11.314925 208.471100,18.842010 C213.773575,22.170589 216.812500,26.131561 216.651749,32.453354 C216.541656,36.782883 216.448181,41.126675 216.666016,45.448017 C217.244125,56.915905 211.476105,64.228363 201.578247,68.833115 C195.707916,71.564133 189.731461,74.067039 182.990738,77.029366 C182.990738,63.834412 182.990738,51.570831 182.990738,39.440468 C161.086472,33.656120 139.246628,34.787495 116.999893,34.630486 z" style=""/></g></svg>